<svg width="40" height="40" viewBox="0 0 40 40" fill="none" xmlns="http://www.w3.org/2000/svg">
  <path d="M20 36C28.8366 36 36 28.8366 36 20C36 11.1634 28.8366 4 20 4C11.1634 4 4 11.1634 4 20C4 28.8366 11.1634 36 20 36Z" fill="#000000" stroke="#00FF7F" stroke-width="1"/>
  <path d="M16.3637 26H13.9901C13.4137 26 13.1387 26 12.9735 25.8943C12.8299 25.8013 12.7299 25.6543 12.7007 25.4888C12.6667 25.3 12.7502 25.0597 12.9171 24.581L19.1162 9.94183C19.2862 9.46183 19.3712 9.22183 19.5009 9.11467C19.6144 9.0205 19.7604 8.97617 19.9067 9.00017C20.0759 9.02767 20.2401 9.21683 20.5684 9.59517L26.6249 16.7163C26.9362 17.0758 27.0919 17.2555 27.1487 17.461C27.1987 17.6413 27.1816 17.8347 27.1002 18.0047C27.0072 18.1998 26.8209 18.3398 26.4482 18.6198L23.3847 20.9645C23.0144 21.2428 22.8292 21.382 22.7374 21.5513C22.6562 21.7005 22.6227 21.8703 22.6407 22.0387C22.6617 22.2317 22.8129 22.4183 23.1154 22.7915L25.0974 25.1745C25.4019 25.551 25.5542 25.7393 25.5444 25.9323C25.5357 26.0998 25.4577 26.256 25.3307 26.364C25.1844 26.4938 24.9409 26.4938 24.4542 26.4938H21.7254C21.3374 26.4938 21.1434 26.4938 20.9764 26.427C20.8297 26.3682 20.7042 26.2655 20.6149 26.1325C20.5122 25.9805 20.4749 25.7865 20.4002 25.3987L20.0262 23.5268C19.9459 23.1048 19.9057 22.8938 19.7844 22.7365C19.6794 22.5998 19.5334 22.5 19.3732 22.4513C19.1894 22.3958 18.9759 22.436 18.5489 22.5165L17.0574 22.814C16.6339 22.8935 16.4222 22.9333 16.2662 23.036C16.1294 23.127 16.0246 23.2605 15.9677 23.4143C15.9029 23.5913 15.9412 23.803 16.0177 24.2265L16.2749 25.582C16.3514 26.0033 16.3897 26.214 16.3112 26.3518C16.2429 26.4723 16.1282 26.5633 15.9932 26.6093C15.8382 26.6628 15.6344 26.6275 15.2269 26.557C14.6899 26.461 14.4214 26.413 14.1922 26.2957C13.9882 26.1903 13.8172 26.0285 13.7019 25.8315C13.5719 25.61 13.5147 25.3453 13.4004 24.816L13.3542 24.6295C13.2379 24.0923 13.1797 23.8237 13.2457 23.6105C13.3029 23.4235 13.4137 23.2613 13.5642 23.1493C13.7362 23.0208 14.0079 22.9795 14.5514 22.897L16.3409 22.599C16.8844 22.5165 17.1562 22.4752 17.3559 22.574C17.5312 22.6615 17.6677 22.8095 17.7452 22.9885C17.8349 23.1945 17.7849 23.4658 17.6849 24.0083L17.3612 26H16.3637Z" fill="#00FF7F"/>
</svg>