<svg width="40" height="40" viewBox="0 0 40 40" fill="none" xmlns="http://www.w3.org/2000/svg">
  <circle cx="20" cy="20" r="16" fill="#000000"/>
  <g>
    <path d="M19.9775 33.3366C22.5659 33.332 25.0969 32.5741 27.2618 31.1554C29.4266 29.7367 31.1318 27.7186 32.1691 25.3474C33.2066 22.976 33.5314 20.354 33.1039 17.8012C32.6765 15.2485 31.5153 12.8754 29.7619 10.9713C28.0086 9.06733 25.739 7.71479 23.2301 7.07876C20.7211 6.44273 18.0814 6.55069 15.6328 7.38949C13.1841 8.22828 11.0325 9.76163 9.44056 11.8024C7.8486 13.8433 6.88505 16.3034 6.66748 18.8825H24.3219V21.124H6.66748C6.95219 24.4573 8.47805 27.562 10.943 29.8238C13.4079 32.0854 16.6323 33.3391 19.9775 33.3366Z" fill="#00FF7F"/>
  </g>
</svg>