<svg width="40" height="40" viewBox="0 0 40 40" fill="none" xmlns="http://www.w3.org/2000/svg">
  <circle cx="20" cy="20" r="16" fill="#000000"/>
  <g>
    <path d="M13.9656 21.1966C14.72 21.1966 15.456 20.9451 16.0509 20.4851L11.2671 15.7013C10.114 17.1916 10.39 19.3383 11.8803 20.4913C12.4814 20.9451 13.2113 21.1966 13.9656 21.1966Z" fill="#00FF7F"/>
    <path d="M28.1946 17.7803C28.1946 16.8759 27.9431 16.04 27.4831 15.445L22.6992 20.2289C24.1896 21.382 26.3302 21.106 27.4831 19.6156C27.9431 19.0206 28.1946 18.2846 28.1946 17.7803Z" fill="#00FF7F"/>
    <path d="M30.6049 12.5732L28.489 14.6893C30.1939 16.7315 29.9242 19.7736 27.8818 21.4786C26.0909 22.9751 23.4904 22.9751 21.6995 21.4786L19.375 23.8031L17.0566 21.4848C14.9142 23.1897 11.8723 22.9199 10.1672 20.8776C8.7708 19.0867 8.7708 16.4862 10.1672 14.6954L9.18163 13.7097L8.15129 12.5732C6.90625 14.6218 6.25 16.9769 6.25 19.3749C6.25 26.6243 12.1256 32.4999 19.375 32.4999C26.6244 32.4999 32.5 26.6243 32.5 19.3749C32.5061 16.9769 31.8438 14.6218 30.6049 12.5732Z" fill="#00FF7F"/>
    <path d="M28.8691 10.3163C23.8706 5.07245 15.5663 4.8762 10.3225 9.8747C10.1691 10.0219 10.0219 10.1691 9.87466 10.3163C9.5558 10.6598 9.24913 11.0155 8.96087 11.3896L19.375 21.8098L29.7891 11.3896C29.507 11.0155 29.1942 10.6598 28.8691 10.3163ZM19.375 7.9673C22.4417 7.9673 25.2996 9.1511 27.4463 11.3099L19.375 19.3811L11.3037 11.3099C13.4504 9.1511 16.3083 7.9673 19.375 7.9673Z" fill="#00FF7F"/>
  </g>
</svg>