<svg width="40" height="40" viewBox="0 0 40 40" fill="none" xmlns="http://www.w3.org/2000/svg">
  <circle cx="20" cy="20" r="16" fill="#000000"/>
  <path d="M26.9291 9.93378C26.1831 9.93378 25.4906 10.3205 25.0999 11.0063L20.8897 17.2069C20.7526 17.4129 20.8082 17.6906 21.0143 17.8277C21.1812 17.939 21.4021 17.9252 21.5542 17.7945L25.6983 14.2001C25.7671 14.1381 25.8734 14.1444 25.9355 14.2132C25.9634 14.2449 25.9784 14.2856 25.9784 14.3275V25.5811C25.9784 25.674 25.9031 25.7486 25.8103 25.7486C25.7603 25.7486 25.7132 25.7269 25.6816 25.6884L13.1547 10.6935C12.7467 10.212 12.1478 9.93435 11.5171 9.93378H11.0793C9.89434 9.93378 8.93378 10.8943 8.93378 12.0793V27.9291C8.93378 29.114 9.89434 30.0746 11.0793 30.0746C11.8253 30.0746 12.5179 29.6879 12.9085 29.0021L17.1187 22.8015C17.2558 22.5955 17.2001 22.3179 16.9941 22.1806C16.8271 22.0694 16.6063 22.0831 16.4542 22.214L12.3101 25.8084C12.2412 25.8703 12.1351 25.864 12.0731 25.7951C12.0452 25.7636 12.0302 25.7229 12.0306 25.6809V14.4245C12.0306 14.3315 12.1059 14.2569 12.1988 14.2569C12.2481 14.2569 12.2958 14.2787 12.3273 14.3171L24.8525 29.3149C25.2605 29.7964 25.8595 30.074 26.4901 30.0746L26.928 30.0752C28.1129 30.0752 29.074 29.1152 29.0752 27.9303V12.0793C29.0752 10.8943 28.1147 9.93378 26.9297 9.93378H26.9291Z" fill="#00FF7F"/>
</svg>