<svg width="40" height="40" viewBox="0 0 40 40" fill="none" xmlns="http://www.w3.org/2000/svg">
  <circle cx="20" cy="20" r="16" fill="#000000" stroke="#00FF7F" stroke-width="1"/>
  <path d="M20 9C13.9249 9 9 13.9249 9 20C9 26.0751 13.9249 31 20 31C26.0751 31 31 26.0751 31 20C31 13.9249 26.0751 9 20 9ZM15.8562 15.125H18.4312C19.2542 15.125 19.9417 15.275 20.4937 15.575C21.0457 15.8667 21.4624 16.2917 21.7437 16.85C22.0249 17.4 22.1655 18.0584 22.1655 18.825C22.1655 19.5917 22.0249 20.2542 21.7437 20.8125C21.4624 21.3709 21.0457 21.8 20.4937 22.1C19.9417 22.3917 19.2542 22.5375 18.4312 22.5375H15.8562V15.125ZM23.4218 15.125H26.1718V22.5375H23.4218V15.125ZM18.4312 20.2375C18.9437 20.2375 19.328 20.0959 19.5843 19.8125C19.8489 19.5209 19.9812 19.1125 19.9812 18.5875C19.9812 18.0625 19.8489 17.6584 19.5843 17.375C19.328 17.0834 18.9437 16.9375 18.4312 16.9375H17.978V20.2375H18.4312Z" fill="#00FF7F"/>
</svg>