<svg width="40" height="40" viewBox="0 0 40 40" fill="none" xmlns="http://www.w3.org/2000/svg">
  <circle cx="20" cy="20" r="16" fill="#000000"/>
  <path d="M12.2857 25.4286C12.4821 25.2321 12.75 25.1071 13.0357 25.1071H30.3571C30.8214 25.1071 31.0536 25.6786 30.7321 26L27.7143 29.0179C27.5179 29.2143 27.25 29.3393 26.9643 29.3393H9.64286C9.17857 29.3393 8.94643 28.7679 9.26786 28.4464L12.2857 25.4286Z" fill="#00FF7F"/>
  <path d="M12.2857 10.9821C12.4911 10.7857 12.7589 10.6607 13.0357 10.6607H30.3571C30.8214 10.6607 31.0536 11.2321 30.7321 11.5536L27.7143 14.5714C27.5179 14.7679 27.25 14.8929 26.9643 14.8929H9.64286C9.17857 14.8929 8.94643 14.3214 9.26786 14L12.2857 10.9821Z" fill="#00FF7F"/>
  <path d="M27.7143 18.1607C27.5089 17.9643 27.2411 17.8393 26.9643 17.8393H9.64286C9.17857 17.8393 8.94643 18.4107 9.26786 18.7321L12.2857 21.75C12.4821 21.9464 12.75 22.0714 13.0357 22.0714H30.3571C30.8214 22.0714 31.0536 21.5 30.7321 21.1786L27.7143 18.1607Z" fill="#00FF7F"/>
</svg>