<svg width="40" height="40" viewBox="0 0 40 40" fill="none" xmlns="http://www.w3.org/2000/svg">
  <circle cx="20" cy="20" r="16" fill="#000000"/>
  <g transform="translate(11, 8) scale(0.115)">
    <path style="fill-rule:evenodd;fill:#00FF7F;fill-opacity:1" d="M120.049 80.075c7.8 9.8 12.5 22.25 12.5 35.75s-4.799 26.3-12.849 36.201l-.701.849-.2-1.099c-.149-.901-.349-1.851-.55-2.802-4-17.649-17.099-32.8-38.7-45.099-14.55-8.25-22.899-18.2-25.1-29.5-1.4-7.299-.351-14.651 1.649-20.95 2.053-6.3 5.053-11.55 7.602-14.701l8.398-10.25c1.451-1.8 4.25-1.8 5.701 0zm13.25-10.25-56.2-68.7c-1.05-1.3-3.099-1.3-4.149 0L16.7 69.825l-.2.25C6.2 82.925 0 99.224 0 116.974c0 41.352 33.599 74.901 75 74.901S150 158.326 150 116.975c0-17.75-6.2-34.049-16.549-46.899zM30.151 79.875l5-6.151.149 1.151c.102.901.25 1.799.451 2.7 3.25 17.05 14.901 31.3 34.3 42.3 16.9 9.599 26.7 20.651 29.549 32.799 1.201 5.049 1.401 10.049.901 14.401l-.049.25-.25.099c-7.602 3.7-16.201 5.799-25.25 5.799-31.75 0-57.5-25.698-57.5-57.399 0-13.601 4.75-26.151 12.7-35.95zm0 0"/>
  </g>
</svg>